<?xml version="1.0" standalone="no" ?>
<!DOCTYPE svg PUBLIC "-//W3C//DTD SVG 1.1//EN" "http://www.w3.org/Graphics/SVG/1.1/DTD/svg11.dtd">
<svg width="103px" height="27px" viewBox="0 0 103 27" style="background-color: #ffffff00" xmlns="http://www.w3.org/2000/svg" xmlns:xlink="http://www.w3.org/1999/xlink" version="1.1" >
<path stroke="none" fill="#000000" transform="matrix(0.05 0 0 0.05 -154 -213)" d="M 4379.6,4368.45 L 4379.6,4391.55 L 3860,4691.55 L 3860,4668.45 L 4379.6,4368.45 Z " />
<text x="0" y="0" stroke="none" fill="#000000" transform="matrix(0.05 0 0 0.05 88.0938 24.5864)" font-style="normal" font-weight="normal" font-size="200px" font-family="Helvetica" >
SH</text>
<path stroke="none" fill="#000000" transform="matrix(0.05 0 0 0.05 -154 -213)" d="M 4811.49,4617.81 L 4801.49,4635.13 L 4379.6,4391.55 L 4379.6,4368.45 L 4811.49,4617.81 Z " />
<text x="0" y="0" stroke="none" fill="#000000" transform="matrix(0.05 0 0 0.05 1.51608 9.58643)" font-style="normal" font-weight="normal" font-size="200px" font-family="Helvetica" >
HO</text>
<path stroke="none" fill="#000000" transform="matrix(0.05 0 0 0.05 -154 -213)" d="M 3434.18,4445.69 L 3444.18,4428.37 L 3860,4668.45 L 3860,4691.55 L 3434.18,4445.69 Z " />
</svg>
