<?xml version="1.0" standalone="no" ?>
<!DOCTYPE svg PUBLIC "-//W3C//DTD SVG 1.1//EN" "http://www.w3.org/Graphics/SVG/1.1/DTD/svg11.dtd">
<svg width="129px" height="89px" viewBox="0 0 129 89" style="background-color: #ffffff00" xmlns="http://www.w3.org/2000/svg" xmlns:xlink="http://www.w3.org/1999/xlink" version="1.1" >
<text x="0" y="0" stroke="none" fill="#000000" transform="matrix(0.05 0 0 0.05 0.974609 54.5864)" font-style="normal" font-weight="normal" font-size="200px" font-family="Helvetica" >
HS</text>
<path stroke="none" fill="#000000" transform="matrix(0.05 0 0 0.05 -152 -177)" d="M 3799.62,4248.45 L 3799.62,4271.55 L 3378.26,4514.82 L 3368.26,4497.5 L 3799.62,4248.45 Z " />
<path stroke="none" fill="#000000" transform="matrix(0.05 0 0 0.05 -152 -177)" d="M 4319.23,4548.45 L 4319.23,4560 L 4308.67,4565.45 L 3799.62,4271.55 L 3799.62,4248.45 L 4319.23,4548.45 Z " />
<path stroke="none" fill="#000000" transform="matrix(0.05 0 0 0.05 -152 -177)" d="M 4838.85,4248.45 L 4838.85,4271.55 L 4329.79,4565.45 L 4319.23,4560 L 4319.23,4548.45 L 4838.85,4248.45 Z " />
<text x="0" y="0" stroke="none" fill="#000000" transform="matrix(0.05 0 0 0.05 112.427 54.5864)" font-style="normal" font-weight="normal" font-size="200px" font-family="Helvetica" >
OH</text>
<path stroke="none" fill="#000000" transform="matrix(0.05 0 0 0.05 -152 -177)" d="M 5265.24,4494.63 L 5255.24,4511.95 L 4838.85,4271.55 L 4838.85,4248.45 L 5265.24,4494.63 Z " />
<text x="0" y="0" stroke="none" fill="#000000" transform="matrix(0.05 0 0 0.05 86.4462 9.58643)" font-style="normal" font-weight="normal" font-size="200px" font-family="Helvetica" >
O</text>
<path stroke="none" fill="#000000" transform="matrix(0.05 0 0 0.05 -152 -177)" d="M 4792.85,3778.32 L 4812.85,3778.32 L 4812.85,4280.78 L 4792.85,4280.78 L 4792.85,3778.32 Z " />
<path stroke="none" fill="#000000" transform="matrix(0.05 0 0 0.05 -152 -177)" d="M 4864.85,3778.32 L 4884.85,3778.32 L 4884.85,4280.78 L 4864.85,4280.78 L 4864.85,3778.32 Z " />
<text x="0" y="0" stroke="none" fill="#000000" transform="matrix(0.05 0 0 0.05 61.1148 84.5864)" font-style="normal" font-weight="normal" font-size="200px" font-family="Helvetica" >
NH</text>
<text x="0" y="0" stroke="none" fill="#000000" transform="matrix(0.05 0 0 0.05 75.5582 86.8862)" font-style="normal" font-weight="normal" font-size="150px" font-family="Helvetica" >
2</text>
<path stroke="none" fill="#000000" transform="matrix(0.05 0 0 0.05 -152 -177)" d="M 4379.23,5047.27 L 4259.23,5047.27 L 4308.67,4565.45 L 4319.23,4560 L 4329.79,4565.45 L 4379.23,5047.27 Z " />
</svg>
