<?xml version="1.0" standalone="no" ?>
<!DOCTYPE svg PUBLIC "-//W3C//DTD SVG 1.1//EN" "http://www.w3.org/Graphics/SVG/1.1/DTD/svg11.dtd">
<svg width="155px" height="89px" viewBox="0 0 155 89" style="background-color: #ffffff00" xmlns="http://www.w3.org/2000/svg" xmlns:xlink="http://www.w3.org/1999/xlink" version="1.1" >
<path stroke="none" fill="#000000" transform="matrix(0.05 0 0 0.05 -130 -159)" d="M 3879.6,3888.45 L 3879.6,3911.55 L 3360,4211.55 L 3360,4188.45 L 3879.6,3888.45 Z " />
<text x="0" y="0" stroke="none" fill="#000000" transform="matrix(0.05 0 0 0.05 0.994598 39.5864)" font-style="normal" font-weight="normal" font-size="200px" font-family="Helvetica" >
HS</text>
<path stroke="none" fill="#000000" transform="matrix(0.05 0 0 0.05 -130 -159)" d="M 2933.55,3965.33 L 2943.55,3948.01 L 3360,4188.45 L 3360,4211.55 L 2933.55,3965.33 Z " />
<path stroke="none" fill="#000000" transform="matrix(0.05 0 0 0.05 -130 -159)" d="M 4399.2,4188.45 L 4399.2,4200 L 4389.2,4205.77 L 3879.6,3911.55 L 3879.6,3888.45 L 4399.2,4188.45 Z " />
<path stroke="none" fill="#000000" transform="matrix(0.05 0 0 0.05 -130 -159)" d="M 4918.8,3888.45 L 4918.8,3911.55 L 4409.2,4205.77 L 4399.2,4200 L 4399.2,4188.45 L 4918.8,3888.45 Z " />
<text x="0" y="0" stroke="none" fill="#000000" transform="matrix(0.05 0 0 0.05 138.424 54.5864)" font-style="normal" font-weight="normal" font-size="200px" font-family="Helvetica" >
OH</text>
<path stroke="none" fill="#000000" transform="matrix(0.05 0 0 0.05 -130 -159)" d="M 5345.18,4134.63 L 5335.18,4151.95 L 4918.8,3911.55 L 4918.8,3888.45 L 5345.18,4134.63 Z " />
<text x="0" y="0" stroke="none" fill="#000000" transform="matrix(0.05 0 0 0.05 112.444 9.58643)" font-style="normal" font-weight="normal" font-size="200px" font-family="Helvetica" >
O</text>
<path stroke="none" fill="#000000" transform="matrix(0.05 0 0 0.05 -130 -159)" d="M 4872.8,3418.32 L 4892.8,3418.32 L 4892.8,3920.79 L 4872.8,3920.79 L 4872.8,3418.32 Z " />
<path stroke="none" fill="#000000" transform="matrix(0.05 0 0 0.05 -130 -159)" d="M 4944.8,3418.32 L 4964.8,3418.32 L 4964.8,3920.79 L 4944.8,3920.79 L 4944.8,3418.32 Z " />
<text x="0" y="0" stroke="none" fill="#000000" transform="matrix(0.05 0 0 0.05 87.1133 84.5864)" font-style="normal" font-weight="normal" font-size="200px" font-family="Helvetica" >
NH</text>
<text x="0" y="0" stroke="none" fill="#000000" transform="matrix(0.05 0 0 0.05 101.557 86.8862)" font-style="normal" font-weight="normal" font-size="150px" font-family="Helvetica" >
2</text>
<path stroke="none" fill="#000000" transform="matrix(0.05 0 0 0.05 -130 -159)" d="M 4409.2,4687.27 L 4389.2,4687.27 L 4389.2,4205.77 L 4399.2,4200 L 4409.2,4205.77 L 4409.2,4687.27 Z " />
</svg>
