<?xml version="1.0" standalone="no" ?>
<!DOCTYPE svg PUBLIC "-//W3C//DTD SVG 1.1//EN" "http://www.w3.org/Graphics/SVG/1.1/DTD/svg11.dtd">
<svg width="234px" height="89px" viewBox="0 0 234 89" style="background-color: #ffffff00" xmlns="http://www.w3.org/2000/svg" xmlns:xlink="http://www.w3.org/1999/xlink" version="1.1" >
<text x="0" y="0" stroke="none" fill="#000000" transform="matrix(0.05 0 0 0.05 1.49609 54.5864)" font-style="normal" font-weight="normal" font-size="200px" font-family="Helvetica" >
HO</text>
<path stroke="none" fill="#000000" transform="matrix(0.05 0 0 0.05 -138 -230)" d="M 3539.6,5308.45 L 3539.6,5331.55 L 3123.73,5571.65 L 3113.73,5554.33 L 3539.6,5308.45 Z " />
<path stroke="none" fill="#000000" transform="matrix(0.05 0 0 0.05 -138 -230)" d="M 4059.2,5608.45 L 4059.2,5631.55 L 3539.6,5331.55 L 3539.6,5308.45 L 4059.2,5608.45 Z " />
<text x="0" y="0" stroke="none" fill="#000000" transform="matrix(0.05 0 0 0.05 35.4839 9.58643)" font-style="normal" font-weight="normal" font-size="200px" font-family="Helvetica" >
O</text>
<path stroke="none" fill="#000000" transform="matrix(0.05 0 0 0.05 -138 -230)" d="M 3493.6,4838.32 L 3513.6,4838.32 L 3513.6,5340.79 L 3493.6,5340.79 L 3493.6,4838.32 Z " />
<path stroke="none" fill="#000000" transform="matrix(0.05 0 0 0.05 -138 -230)" d="M 3565.6,4838.32 L 3585.6,4838.32 L 3585.6,5340.79 L 3565.6,5340.79 L 3565.6,4838.32 Z " />
<path stroke="none" fill="#000000" transform="matrix(0.05 0 0 0.05 -138 -230)" d="M 4578.8,5308.45 L 4578.8,5331.55 L 4059.2,5631.55 L 4059.2,5608.45 L 4578.8,5308.45 Z " />
<text x="0" y="0" stroke="none" fill="#000000" transform="matrix(0.05 0 0 0.05 62.1133 84.5864)" font-style="normal" font-weight="normal" font-size="200px" font-family="Helvetica" >
NH</text>
<text x="0" y="0" stroke="none" fill="#000000" transform="matrix(0.05 0 0 0.05 76.5567 86.8862)" font-style="normal" font-weight="normal" font-size="150px" font-family="Helvetica" >
2</text>
<path stroke="none" fill="#000000" transform="matrix(0.05 0 0 0.05 -138 -230)" d="M 4119.2,6107.27 L 3999.2,6107.27 L 4001.51,6087.27 L 4116.89,6087.27 L 4119.2,6107.27 Z " />
<path stroke="none" fill="#000000" transform="matrix(0.05 0 0 0.05 -138 -230)" d="M 4112.39,6048.24 L 4006.01,6048.24 L 4008.32,6028.24 L 4110.08,6028.24 L 4112.39,6048.24 Z " />
<path stroke="none" fill="#000000" transform="matrix(0.05 0 0 0.05 -138 -230)" d="M 4105.57,5989.2 L 4012.83,5989.2 L 4015.13,5969.2 L 4103.27,5969.2 L 4105.57,5989.2 Z " />
<path stroke="none" fill="#000000" transform="matrix(0.05 0 0 0.05 -138 -230)" d="M 4098.76,5930.17 L 4019.64,5930.17 L 4021.95,5910.17 L 4096.45,5910.17 L 4098.76,5930.17 Z " />
<path stroke="none" fill="#000000" transform="matrix(0.05 0 0 0.05 -138 -230)" d="M 4091.95,5871.13 L 4026.45,5871.13 L 4028.76,5851.13 L 4089.64,5851.13 L 4091.95,5871.13 Z " />
<path stroke="none" fill="#000000" transform="matrix(0.05 0 0 0.05 -138 -230)" d="M 4085.13,5812.1 L 4033.27,5812.1 L 4035.57,5792.1 L 4082.83,5792.1 L 4085.13,5812.1 Z " />
<path stroke="none" fill="#000000" transform="matrix(0.05 0 0 0.05 -138 -230)" d="M 4078.32,5753.06 L 4040.08,5753.06 L 4042.39,5733.06 L 4076.01,5733.06 L 4078.32,5753.06 Z " />
<path stroke="none" fill="#000000" transform="matrix(0.05 0 0 0.05 -138 -230)" d="M 4071.51,5694.03 L 4046.89,5694.03 L 4049.2,5674.03 L 4069.2,5674.03 L 4071.51,5694.03 Z " />
<text x="0" y="0" stroke="none" fill="#000000" transform="matrix(0.05 0 0 0.05 114.054 54.5864)" font-style="normal" font-weight="normal" font-size="200px" font-family="Helvetica" >
S</text>
<path stroke="none" fill="#000000" transform="matrix(0.05 0 0 0.05 -138 -230)" d="M 5009.94,5557.38 L 4999.94,5574.7 L 4578.8,5331.55 L 4578.8,5308.45 L 5009.94,5557.38 Z " />
<path stroke="none" fill="#000000" transform="matrix(0.05 0 0 0.05 -138 -230)" d="M 5618,5308.45 L 5618,5331.55 L 5195.98,5575.21 L 5185.98,5557.89 L 5618,5308.45 Z " />
<path stroke="none" fill="#000000" transform="matrix(0.05 0 0 0.05 -138 -230)" d="M 6137.6,5608.45 L 6137.6,5620 L 6127.04,5625.45 L 5618,5331.55 L 5618,5308.45 L 6137.6,5608.45 Z " />
<path stroke="none" fill="#000000" transform="matrix(0.05 0 0 0.05 -138 -230)" d="M 6657.4,5308.45 L 6657.4,5331.55 L 6148.16,5625.45 L 6137.6,5620 L 6137.6,5608.45 L 6657.4,5308.45 Z " />
<text x="0" y="0" stroke="none" fill="#000000" transform="matrix(0.05 0 0 0.05 217.354 54.5864)" font-style="normal" font-weight="normal" font-size="200px" font-family="Helvetica" >
OH</text>
<path stroke="none" fill="#000000" transform="matrix(0.05 0 0 0.05 -138 -230)" d="M 7083.78,5554.63 L 7073.78,5571.95 L 6657.4,5331.55 L 6657.4,5308.45 L 7083.78,5554.63 Z " />
<text x="0" y="0" stroke="none" fill="#000000" transform="matrix(0.05 0 0 0.05 191.374 9.58643)" font-style="normal" font-weight="normal" font-size="200px" font-family="Helvetica" >
O</text>
<path stroke="none" fill="#000000" transform="matrix(0.05 0 0 0.05 -138 -230)" d="M 6611.4,4838.32 L 6631.4,4838.32 L 6631.4,5340.78 L 6611.4,5340.78 L 6611.4,4838.32 Z " />
<path stroke="none" fill="#000000" transform="matrix(0.05 0 0 0.05 -138 -230)" d="M 6683.4,4838.32 L 6703.4,4838.32 L 6703.4,5340.79 L 6683.4,5340.79 L 6683.4,4838.32 Z " />
<text x="0" y="0" stroke="none" fill="#000000" transform="matrix(0.05 0 0 0.05 166.033 84.5864)" font-style="normal" font-weight="normal" font-size="200px" font-family="Helvetica" >
NH</text>
<text x="0" y="0" stroke="none" fill="#000000" transform="matrix(0.05 0 0 0.05 180.477 86.8862)" font-style="normal" font-weight="normal" font-size="150px" font-family="Helvetica" >
2</text>
<path stroke="none" fill="#000000" transform="matrix(0.05 0 0 0.05 -138 -230)" d="M 6197.6,6107.27 L 6077.6,6107.27 L 6127.04,5625.45 L 6137.6,5620 L 6148.16,5625.45 L 6197.6,6107.27 Z " />
</svg>
