<?xml version="1.0" standalone="no" ?>
<!DOCTYPE svg PUBLIC "-//W3C//DTD SVG 1.1//EN" "http://www.w3.org/Graphics/SVG/1.1/DTD/svg11.dtd">
<svg width="108px" height="87px" viewBox="0 0 108 87" style="background-color: #ffffff00" xmlns="http://www.w3.org/2000/svg" xmlns:xlink="http://www.w3.org/1999/xlink" version="1.1" >
<path stroke="none" fill="#000000" transform="matrix(0.05 0 0 0.05 -91 -166)" d="M 3199.6,4028.45 L 3199.6,4051.55 L 2680,4351.55 L 2680,4328.45 L 3199.6,4028.45 Z " />
<text x="0" y="0" stroke="none" fill="#000000" transform="matrix(0.05 0 0 0.05 91.4639 54.5864)" font-style="normal" font-weight="normal" font-size="200px" font-family="Helvetica" >
OH</text>
<path stroke="none" fill="#000000" transform="matrix(0.05 0 0 0.05 -91 -166)" d="M 3625.98,4274.63 L 3615.98,4291.95 L 3199.6,4051.55 L 3199.6,4028.45 L 3625.98,4274.63 Z " />
<text x="0" y="0" stroke="none" fill="#000000" transform="matrix(0.05 0 0 0.05 1.58664 39.5864)" font-style="normal" font-weight="normal" font-size="200px" font-family="Helvetica" >
H</text>
<text x="0" y="0" stroke="none" fill="#000000" transform="matrix(0.05 0 0 0.05 8.80832 41.8862)" font-style="normal" font-weight="normal" font-size="150px" font-family="Helvetica" >
3</text>
<text x="0" y="0" stroke="none" fill="#000000" transform="matrix(0.05 0 0 0.05 12.9795 39.5864)" font-style="normal" font-weight="normal" font-size="200px" font-family="Helvetica" >
C</text>
<path stroke="none" fill="#000000" transform="matrix(0.05 0 0 0.05 -91 -166)" d="M 2252.38,4104.65 L 2262.38,4087.33 L 2680,4328.45 L 2680,4351.55 L 2252.38,4104.65 Z " />
<text x="0" y="0" stroke="none" fill="#000000" transform="matrix(0.05 0 0 0.05 39.5039 84.5864)" font-style="normal" font-weight="normal" font-size="200px" font-family="Helvetica" >
O</text>
<path stroke="none" fill="#000000" transform="matrix(0.05 0 0 0.05 -91 -166)" d="M 2726,4826.32 L 2706,4826.32 L 2706,4319.21 L 2726,4319.21 L 2726,4826.32 Z " />
<path stroke="none" fill="#000000" transform="matrix(0.05 0 0 0.05 -91 -166)" d="M 2654,4826.32 L 2634,4826.32 L 2634,4319.21 L 2654,4319.21 L 2654,4826.32 Z " />
<text x="0" y="0" stroke="none" fill="#000000" transform="matrix(0.05 0 0 0.05 65.4839 9.58643)" font-style="normal" font-weight="normal" font-size="200px" font-family="Helvetica" >
O</text>
<path stroke="none" fill="#000000" transform="matrix(0.05 0 0 0.05 -91 -166)" d="M 3153.6,3558.32 L 3173.6,3558.32 L 3173.6,4060.79 L 3153.6,4060.79 L 3153.6,3558.32 Z " />
<path stroke="none" fill="#000000" transform="matrix(0.05 0 0 0.05 -91 -166)" d="M 3225.6,3558.32 L 3245.6,3558.32 L 3245.6,4060.79 L 3225.6,4060.79 L 3225.6,3558.32 Z " />
</svg>
