<?xml version="1.0" standalone="no" ?>
<!DOCTYPE svg PUBLIC "-//W3C//DTD SVG 1.1//EN" "http://www.w3.org/Graphics/SVG/1.1/DTD/svg11.dtd">
<svg width="234px" height="90px" viewBox="0 0 234 90" style="background-color: #ffffff00" xmlns="http://www.w3.org/2000/svg" xmlns:xlink="http://www.w3.org/1999/xlink" version="1.1" >
<text x="0" y="0" stroke="none" fill="#000000" transform="matrix(0.05 0 0 0.05 1.37608 55.2464)" font-style="normal" font-weight="normal" font-size="200px" font-family="Helvetica" >
HO</text>
<path stroke="none" fill="#000000" transform="matrix(0.05 0 0 0.05 -205 -177)" d="M 4877.2,4261.65 L 4877.2,4284.75 L 4460.58,4525.29 L 4450.58,4507.97 L 4877.2,4261.65 Z " />
<path stroke="none" fill="#000000" transform="matrix(0.05 0 0 0.05 -205 -177)" d="M 5396.8,4561.65 L 5396.8,4584.75 L 4877.2,4284.75 L 4877.2,4261.65 L 5396.8,4561.65 Z " />
<text x="0" y="0" stroke="none" fill="#000000" transform="matrix(0.05 0 0 0.05 87.9538 40.2464)" font-style="normal" font-weight="normal" font-size="200px" font-family="Helvetica" >
S</text>
<path stroke="none" fill="#000000" transform="matrix(0.05 0 0 0.05 -205 -177)" d="M 5813.88,4320.84 L 5823.88,4338.16 L 5396.8,4584.75 L 5396.8,4561.65 L 5813.88,4320.84 Z " />
<path stroke="none" fill="#000000" transform="matrix(0.05 0 0 0.05 -205 -177)" d="M 6436,4561.65 L 6436,4584.75 L 6008.87,4338.13 L 6018.87,4320.81 L 6436,4561.65 Z " />
<path stroke="none" fill="#000000" transform="matrix(0.05 0 0 0.05 -205 -177)" d="M 6955.6,4261.65 L 6955.6,4284.75 L 6436,4584.75 L 6436,4561.65 L 6955.6,4261.65 Z " />
<path stroke="none" fill="#000000" transform="matrix(0.05 0 0 0.05 -205 -177)" d="M 7475.2,4561.65 L 7475.2,4573.2 L 7464.64,4578.65 L 6955.6,4284.75 L 6955.6,4261.65 L 7475.2,4561.65 Z " />
<path stroke="none" fill="#000000" transform="matrix(0.05 0 0 0.05 -205 -177)" d="M 7994.8,4261.65 L 7994.8,4284.75 L 7485.76,4578.65 L 7475.2,4573.2 L 7475.2,4561.65 L 7994.8,4261.65 Z " />
<text x="0" y="0" stroke="none" fill="#000000" transform="matrix(0.05 0 0 0.05 165.913 85.2464)" font-style="normal" font-weight="normal" font-size="200px" font-family="Helvetica" >
NH</text>
<text x="0" y="0" stroke="none" fill="#000000" transform="matrix(0.05 0 0 0.05 180.357 87.5462)" font-style="normal" font-weight="normal" font-size="150px" font-family="Helvetica" >
2</text>
<path stroke="none" fill="#000000" transform="matrix(0.05 0 0 0.05 -205 -177)" d="M 7535.2,5060.47 L 7415.2,5060.47 L 7464.64,4578.65 L 7475.2,4573.2 L 7485.76,4578.65 L 7535.2,5060.47 Z " />
<text x="0" y="0" stroke="none" fill="#000000" transform="matrix(0.05 0 0 0.05 217.224 55.2464)" font-style="normal" font-weight="normal" font-size="200px" font-family="Helvetica" >
OH</text>
<path stroke="none" fill="#000000" transform="matrix(0.05 0 0 0.05 -205 -177)" d="M 8421.18,4507.83 L 8411.18,4525.15 L 7994.8,4284.75 L 7994.8,4261.65 L 8421.18,4507.83 Z " />
<text x="0" y="0" stroke="none" fill="#000000" transform="matrix(0.05 0 0 0.05 191.244 10.2464)" font-style="normal" font-weight="normal" font-size="200px" font-family="Helvetica" >
O</text>
<path stroke="none" fill="#000000" transform="matrix(0.05 0 0 0.05 -205 -177)" d="M 7948.8,3791.52 L 7968.8,3791.52 L 7968.8,4293.98 L 7948.8,4293.98 L 7948.8,3791.52 Z " />
<path stroke="none" fill="#000000" transform="matrix(0.05 0 0 0.05 -205 -177)" d="M 8020.8,3791.52 L 8040.8,3791.52 L 8040.8,4293.98 L 8020.8,4293.98 L 8020.8,3791.52 Z " />
</svg>
