<?xml version="1.0" standalone="no" ?>
<!DOCTYPE svg PUBLIC "-//W3C//DTD SVG 1.1//EN" "http://www.w3.org/Graphics/SVG/1.1/DTD/svg11.dtd">
<svg width="208px" height="89px" viewBox="0 0 208 89" style="background-color: #ffffff00" xmlns="http://www.w3.org/2000/svg" xmlns:xlink="http://www.w3.org/1999/xlink" version="1.1" >
<path stroke="none" fill="#000000" transform="matrix(0.05 0 0 0.05 -168 -200)" d="M 4659.6,4708.45 L 4659.6,4731.55 L 4140,5031.55 L 4140,5008.45 L 4659.6,4708.45 Z " />
<text x="0" y="0" stroke="none" fill="#000000" transform="matrix(0.05 0 0 0.05 1.51608 39.5864)" font-style="normal" font-weight="normal" font-size="200px" font-family="Helvetica" >
HO</text>
<path stroke="none" fill="#000000" transform="matrix(0.05 0 0 0.05 -168 -200)" d="M 3714.18,4785.69 L 3724.18,4768.37 L 4140,5008.45 L 4140,5031.55 L 3714.18,4785.69 Z " />
<text x="0" y="0" stroke="none" fill="#000000" transform="matrix(0.05 0 0 0.05 88.0938 54.5864)" font-style="normal" font-weight="normal" font-size="200px" font-family="Helvetica" >
S</text>
<path stroke="none" fill="#000000" transform="matrix(0.05 0 0 0.05 -168 -200)" d="M 5091.49,4957.81 L 5081.49,4975.13 L 4659.6,4731.55 L 4659.6,4708.45 L 5091.49,4957.81 Z " />
<path stroke="none" fill="#000000" transform="matrix(0.05 0 0 0.05 -168 -200)" d="M 5698.8,4708.45 L 5698.8,4731.55 L 5277.53,4974.78 L 5267.52,4957.46 L 5698.8,4708.45 Z " />
<path stroke="none" fill="#000000" transform="matrix(0.05 0 0 0.05 -168 -200)" d="M 6218.4,5008.45 L 6218.4,5020 L 6207.84,5025.45 L 5698.8,4731.55 L 5698.8,4708.45 L 6218.4,5008.45 Z " />
<path stroke="none" fill="#000000" transform="matrix(0.05 0 0 0.05 -168 -200)" d="M 6738,4708.45 L 6738,4731.55 L 6228.96,5025.45 L 6218.4,5020 L 6218.4,5008.45 L 6738,4708.45 Z " />
<text x="0" y="0" stroke="none" fill="#000000" transform="matrix(0.05 0 0 0.05 140.073 84.5864)" font-style="normal" font-weight="normal" font-size="200px" font-family="Helvetica" >
NH</text>
<text x="0" y="0" stroke="none" fill="#000000" transform="matrix(0.05 0 0 0.05 154.517 86.8862)" font-style="normal" font-weight="normal" font-size="150px" font-family="Helvetica" >
2</text>
<path stroke="none" fill="#000000" transform="matrix(0.05 0 0 0.05 -168 -200)" d="M 6278.4,5507.27 L 6158.4,5507.27 L 6207.84,5025.45 L 6218.4,5020 L 6228.96,5025.45 L 6278.4,5507.27 Z " />
<text x="0" y="0" stroke="none" fill="#000000" transform="matrix(0.05 0 0 0.05 191.384 54.5864)" font-style="normal" font-weight="normal" font-size="200px" font-family="Helvetica" >
OH</text>
<path stroke="none" fill="#000000" transform="matrix(0.05 0 0 0.05 -168 -200)" d="M 7164.38,4954.63 L 7154.38,4971.95 L 6738,4731.55 L 6738,4708.45 L 7164.38,4954.63 Z " />
<text x="0" y="0" stroke="none" fill="#000000" transform="matrix(0.05 0 0 0.05 165.404 9.58643)" font-style="normal" font-weight="normal" font-size="200px" font-family="Helvetica" >
O</text>
<path stroke="none" fill="#000000" transform="matrix(0.05 0 0 0.05 -168 -200)" d="M 6692,4238.32 L 6712,4238.32 L 6712,4740.79 L 6692,4740.79 L 6692,4238.32 Z " />
<path stroke="none" fill="#000000" transform="matrix(0.05 0 0 0.05 -168 -200)" d="M 6764,4238.32 L 6784,4238.32 L 6784,4740.79 L 6764,4740.79 L 6764,4238.32 Z " />
</svg>
