<?xml version="1.0" standalone="no" ?>
<!DOCTYPE svg PUBLIC "-//W3C//DTD SVG 1.1//EN" "http://www.w3.org/Graphics/SVG/1.1/DTD/svg11.dtd">
<svg width="130px" height="89px" viewBox="0 0 130 89" style="background-color: #ffffff00" xmlns="http://www.w3.org/2000/svg" xmlns:xlink="http://www.w3.org/1999/xlink" version="1.1" >
<text x="0" y="0" stroke="none" fill="#000000" transform="matrix(0.05 0 0 0.05 1.49609 54.5864)" font-style="normal" font-weight="normal" font-size="200px" font-family="Helvetica" >
HO</text>
<path stroke="none" fill="#000000" transform="matrix(0.05 0 0 0.05 -153 -199)" d="M 3839.6,4688.45 L 3839.6,4711.55 L 3423.73,4951.65 L 3413.73,4934.33 L 3839.6,4688.45 Z " />
<path stroke="none" fill="#000000" transform="matrix(0.05 0 0 0.05 -153 -199)" d="M 4359.2,4988.45 L 4359.2,5000 L 4348.64,5005.45 L 3839.6,4711.55 L 3839.6,4688.45 L 4359.2,4988.45 Z " />
<path stroke="none" fill="#000000" transform="matrix(0.05 0 0 0.05 -153 -199)" d="M 4878.8,4688.45 L 4878.8,4711.55 L 4369.76,5005.45 L 4359.2,5000 L 4359.2,4988.45 L 4878.8,4688.45 Z " />
<text x="0" y="0" stroke="none" fill="#000000" transform="matrix(0.05 0 0 0.05 62.1133 84.5864)" font-style="normal" font-weight="normal" font-size="200px" font-family="Helvetica" >
NH</text>
<text x="0" y="0" stroke="none" fill="#000000" transform="matrix(0.05 0 0 0.05 76.5567 86.8862)" font-style="normal" font-weight="normal" font-size="150px" font-family="Helvetica" >
2</text>
<path stroke="none" fill="#000000" transform="matrix(0.05 0 0 0.05 -153 -199)" d="M 4419.2,5487.27 L 4299.2,5487.27 L 4348.64,5005.45 L 4359.2,5000 L 4369.76,5005.45 L 4419.2,5487.27 Z " />
<text x="0" y="0" stroke="none" fill="#000000" transform="matrix(0.05 0 0 0.05 113.424 54.5864)" font-style="normal" font-weight="normal" font-size="200px" font-family="Helvetica" >
OH</text>
<path stroke="none" fill="#000000" transform="matrix(0.05 0 0 0.05 -153 -199)" d="M 5305.18,4934.63 L 5295.18,4951.95 L 4878.8,4711.55 L 4878.8,4688.45 L 5305.18,4934.63 Z " />
<text x="0" y="0" stroke="none" fill="#000000" transform="matrix(0.05 0 0 0.05 87.4439 9.58643)" font-style="normal" font-weight="normal" font-size="200px" font-family="Helvetica" >
O</text>
<path stroke="none" fill="#000000" transform="matrix(0.05 0 0 0.05 -153 -199)" d="M 4832.8,4218.32 L 4852.8,4218.32 L 4852.8,4720.79 L 4832.8,4720.79 L 4832.8,4218.32 Z " />
<path stroke="none" fill="#000000" transform="matrix(0.05 0 0 0.05 -153 -199)" d="M 4904.8,4218.32 L 4924.8,4218.32 L 4924.8,4720.79 L 4904.8,4720.79 L 4904.8,4218.32 Z " />
</svg>
